<svg width="190" height="26" viewBox="0 0 190 26" fill="none" xmlns="http://www.w3.org/2000/svg">
<path d="M14.2969 6.35938C14.2135 6.33854 14.0156 6.28646 13.7031 6.20312C13.401 6.11979 12.974 6.04167 12.4219 5.96875C11.8802 5.89583 11.3021 5.85938 10.6875 5.85938C8.9375 5.85938 7.60938 6.51042 6.70312 7.8125C5.79688 9.10417 5.34375 11.0625 5.34375 13.6875C5.34375 18.6354 7.15625 21.1094 10.7812 21.1094C11.2708 21.1094 11.776 21.0677 12.2969 20.9844C12.8177 20.901 13.2552 20.8125 13.6094 20.7188C13.9635 20.625 14.1927 20.5677 14.2969 20.5469V16.5156L11.8906 15.7656V13.1562L21.1094 12.9844V15.7656L18.9375 16.5156V23.0312C18.9375 23.0729 18.5312 23.2812 17.7188 23.6562C16.9062 24.0312 15.8542 24.3802 14.5625 24.7031C13.2812 25.026 11.8385 25.1875 10.2344 25.1875C6.97396 25.1875 4.45312 24.224 2.67188 22.2969C0.890625 20.3594 0 17.5469 0 13.8594C0 11.3802 0.442708 9.23958 1.32812 7.4375C2.21354 5.63542 3.46354 4.25521 5.07812 3.29688C6.70312 2.33854 8.60417 1.85938 10.7812 1.85938C11.9375 1.85938 13.0625 1.97396 14.1562 2.20312C15.25 2.42188 16.2031 2.66667 17.0156 2.9375C17.8281 3.19792 18.2344 3.33854 18.2344 3.35938L18.0781 9.10938H15.0938L14.2969 6.35938ZM33.6875 22.7188C33.6875 22.7604 33.4115 22.9948 32.8594 23.4219C32.3073 23.849 31.6458 24.2396 30.875 24.5938C30.1042 24.9375 29.3125 25.1094 28.5 25.1094C26.9375 25.1094 25.7135 24.6771 24.8281 23.8125C23.9531 22.9375 23.5156 21.6979 23.5156 20.0938C23.5156 18.2604 24.1719 16.9219 25.4844 16.0781C26.7969 15.2344 28.7083 14.8125 31.2188 14.8125H33.4688V13.0469C33.4688 11.4844 32.6458 10.7083 31 10.7188C30.5104 10.7188 30.0573 10.7552 29.6406 10.8281C29.224 10.901 28.8906 10.9792 28.6406 11.0625C28.401 11.1354 28.25 11.1823 28.1875 11.2031L27.7031 13.2188H24.8281L24.6094 8.48438C24.7969 8.42188 25.2552 8.28646 25.9844 8.07812C26.724 7.86979 27.6042 7.67188 28.625 7.48438C29.6562 7.29688 30.6302 7.20312 31.5469 7.20312C33.1927 7.20312 34.5 7.41146 35.4688 7.82812C36.4375 8.23438 37.1458 8.90104 37.5938 9.82812C38.0417 10.7448 38.2656 11.9792 38.2656 13.5312V21.4375L40.6719 22.0156V24.5781L34.2656 24.7969L33.6875 22.7188ZM28.1562 19.6094C28.1562 20.2344 28.3177 20.7135 28.6406 21.0469C28.974 21.3698 29.4427 21.5312 30.0469 21.5312C30.5573 21.5312 31.0625 21.3958 31.5625 21.125C32.0625 20.8438 32.4844 20.5573 32.8281 20.2656C33.1719 19.9635 33.3854 19.7656 33.4688 19.6719V17.5312H31.6406C30.401 17.5312 29.5104 17.6979 28.9688 18.0312C28.4271 18.3646 28.1562 18.8906 28.1562 19.6094ZM49.6406 25.1094C47.9115 25.1094 46.6875 24.5729 45.9688 23.5C45.2604 22.4271 44.9062 20.8854 44.9062 18.875V11.5156H41.9375V8.40625L44.9062 8V3.57812L49.7031 2.71875V8H54.1875V11.5156H49.7031V18.5625C49.7031 19.625 49.8177 20.3698 50.0469 20.7969C50.2865 21.224 50.7396 21.4375 51.4062 21.4375C51.7917 21.4375 52.2396 21.3542 52.75 21.1875C53.2604 21.0104 53.6562 20.849 53.9375 20.7031L55.0781 23.1406C53.2865 24.4635 51.474 25.1198 49.6406 25.1094ZM63.3906 9.375C64.0469 8.82292 64.8438 8.32292 65.7812 7.875C66.7292 7.42708 67.724 7.20312 68.7656 7.20312C70.3906 7.20312 71.6354 7.70833 72.5 8.71875C73.3646 9.72917 73.7969 11.1406 73.7969 12.9531V21.4375L76.0312 22.2344V24.7969H67.3281V22.2344L68.9844 21.4688V13.7188C68.9844 12.0104 68.2812 11.1615 66.875 11.1719C66.3438 11.1719 65.8229 11.3021 65.3125 11.5625C64.8021 11.8125 64.375 12.0729 64.0312 12.3438C63.6875 12.6042 63.474 12.776 63.3906 12.8594V21.4375L65.0938 22.2344V24.7969H56.0312V22.2344L58.5938 21.4375V3.45312L56.0312 2.8125V0.25L63.3906 0V9.375ZM82.9375 17.2188C83.0208 18.5 83.4062 19.5 84.0938 20.2188C84.7917 20.9271 85.6979 21.2812 86.8125 21.2812C87.6042 21.2812 88.3958 21.1719 89.1875 20.9531C89.9896 20.724 90.651 20.4948 91.1719 20.2656C91.7031 20.026 92.0417 19.8594 92.1875 19.7656L93.5625 22.4219C93.5625 22.4635 93.1875 22.7292 92.4375 23.2188C91.6979 23.6979 90.7865 24.1354 89.7031 24.5312C88.6302 24.9167 87.4844 25.1094 86.2656 25.1094C83.5573 25.1094 81.4948 24.3594 80.0781 22.8594C78.6615 21.3594 77.9531 19.2344 77.9531 16.4844C77.9531 14.6302 78.2917 13.0052 78.9688 11.6094C79.6562 10.2031 80.6406 9.11979 81.9219 8.35938C83.2031 7.58854 84.724 7.20312 86.4844 7.20312C88.8281 7.20312 90.625 7.875 91.875 9.21875C93.125 10.5625 93.75 12.3958 93.75 14.7188C93.75 15.2292 93.724 15.724 93.6719 16.2031C93.6198 16.6823 93.5833 16.9844 93.5625 17.1094L82.9375 17.2188ZM86.1719 11.0312C85.2969 11.0312 84.5833 11.3281 84.0312 11.9219C83.4792 12.5052 83.1354 13.276 83 14.2344H88.7969C88.7969 13.276 88.5833 12.5052 88.1562 11.9219C87.7292 11.3281 87.0677 11.0312 86.1719 11.0312ZM103.016 9.71875C103.016 9.67708 103.266 9.43229 103.766 8.98438C104.266 8.53646 104.844 8.13021 105.5 7.76562C106.167 7.39062 106.823 7.20312 107.469 7.20312C107.979 7.20312 108.458 7.24479 108.906 7.32812C109.354 7.41146 109.703 7.5 109.953 7.59375C110.214 7.6875 110.375 7.74479 110.438 7.76562L110.188 13.9219H107.312L106.828 11.2031C106.276 11.2031 105.74 11.3385 105.219 11.6094C104.708 11.8698 104.271 12.1615 103.906 12.4844C103.552 12.7969 103.375 12.9635 103.375 12.9844V21.4375L106.578 22.2344V24.7969H96.0156V22.2344L98.5781 21.4375V11.0312L96.0156 10.2344V7.67188L102.734 7.51562L103.016 9.71875ZM114.297 6.07812L111.891 5.10938V2.39062L119.25 2.23438H122.297C125.536 2.23438 128.042 3.17708 129.812 5.0625C131.583 6.9375 132.469 9.65625 132.469 13.2188C132.469 15.5833 132.031 17.6406 131.156 19.3906C130.281 21.1406 129.042 22.4792 127.438 23.4062C125.844 24.3333 123.969 24.7969 121.812 24.7969H111.891V22.0781L114.297 21.1094V6.07812ZM121.906 20.9531C123.573 20.9531 124.854 20.375 125.75 19.2188C126.646 18.0521 127.094 16.1042 127.094 13.375C127.094 10.7708 126.677 8.90625 125.844 7.78125C125.01 6.64583 123.771 6.07812 122.125 6.07812H119.25V20.9531H121.906ZM140.188 17.2188C140.271 18.5 140.656 19.5 141.344 20.2188C142.042 20.9271 142.948 21.2812 144.062 21.2812C144.854 21.2812 145.646 21.1719 146.438 20.9531C147.24 20.724 147.901 20.4948 148.422 20.2656C148.953 20.026 149.292 19.8594 149.438 19.7656L150.812 22.4219C150.812 22.4635 150.438 22.7292 149.688 23.2188C148.948 23.6979 148.036 24.1354 146.953 24.5312C145.88 24.9167 144.734 25.1094 143.516 25.1094C140.807 25.1094 138.745 24.3594 137.328 22.8594C135.911 21.3594 135.203 19.2344 135.203 16.4844C135.203 14.6302 135.542 13.0052 136.219 11.6094C136.906 10.2031 137.891 9.11979 139.172 8.35938C140.453 7.58854 141.974 7.20312 143.734 7.20312C146.078 7.20312 147.875 7.875 149.125 9.21875C150.375 10.5625 151 12.3958 151 14.7188C151 15.2292 150.974 15.724 150.922 16.2031C150.87 16.6823 150.833 16.9844 150.812 17.1094L140.188 17.2188ZM143.422 11.0312C142.547 11.0312 141.833 11.3281 141.281 11.9219C140.729 12.5052 140.385 13.276 140.25 14.2344H146.047C146.047 13.276 145.833 12.5052 145.406 11.9219C144.979 11.3281 144.318 11.0312 143.422 11.0312ZM168.766 22.3906C168.047 23.0365 167.104 23.651 165.938 24.2344C164.781 24.8177 163.432 25.1094 161.891 25.1094C159.266 25.1094 157.224 24.3438 155.766 22.8125C154.307 21.2812 153.578 19.1458 153.578 16.4062C153.578 13.5521 154.349 11.3073 155.891 9.67188C157.443 8.02604 159.604 7.20312 162.375 7.20312C163.188 7.20312 164.005 7.28646 164.828 7.45312C165.661 7.61979 166.354 7.79167 166.906 7.96875C167.469 8.13542 167.823 8.25 167.969 8.3125L167.812 13.5625H164.938L164.484 11.2969C164.38 11.276 164.12 11.2292 163.703 11.1562C163.286 11.0729 162.812 11.0312 162.281 11.0312C161.104 11.0312 160.182 11.4323 159.516 12.2344C158.859 13.0365 158.531 14.2135 158.531 15.7656C158.531 17.5365 158.865 18.901 159.531 19.8594C160.208 20.8073 161.208 21.2812 162.531 21.2812C163.365 21.2812 164.094 21.1562 164.719 20.9062C165.354 20.6458 165.885 20.3802 166.312 20.1094C166.74 19.8385 167.026 19.6615 167.172 19.5781L168.766 22.3906ZM179.375 13.9531L181.547 10.6875L180.141 10.2344V7.67188L188.406 7.51562V10.2344L186.156 10.6562L183.188 14.8438L186.766 21.4688L189.203 22.2344V24.7969H183.281L179.312 16.9844H177.266V21.4375L179.031 22.2344V24.7969H169.906V22.2344L172.469 21.4375V3.45312L169.906 2.8125V0.25L177.266 0V13.9531H179.375Z" fill="#FFCC00"/>
</svg>
