<?xml version="1.0" encoding="UTF-8"?>
<svg version="1.1" xmlns="http://www.w3.org/2000/svg" width="5120" height="2880">
<path d="M0 0 C0.84691406 0.77472656 1.69382812 1.54945312 2.56640625 2.34765625 C2.56640625 3.00765625 2.56640625 3.66765625 2.56640625 4.34765625 C3.55640625 4.01765625 4.54640625 3.68765625 5.56640625 3.34765625 C6.37954393 1.04933417 6.37954393 1.04933417 6.87890625 -1.71484375 C8.67064466 -8.86323014 11.76930519 -14.23107058 18.19140625 -18.08984375 C25.55347595 -21.49820935 33.04739442 -21.82315014 40.75390625 -19.15234375 C47.42506791 -16.1629081 51.20449751 -11.72222499 54.13616943 -5.11393738 C56.55948257 2.39543584 55.96679536 10.41898828 55.92285156 18.22143555 C55.92364335 20.03253783 55.92574341 21.84363994 55.92904663 23.65473938 C55.93416401 28.55589832 55.92067566 33.45684591 55.90351963 38.35797095 C55.8884259 43.50303089 55.88965617 48.64808874 55.88885498 53.79316711 C55.8851664 62.43726174 55.87022446 71.08127679 55.84765625 79.7253418 C55.8188334 90.78689168 55.80843556 101.84837738 55.80397415 112.90996075 C55.79997767 122.45540715 55.7874757 132.00083985 55.77362728 141.54627633 C55.76954885 144.59621095 55.76661273 147.64614511 55.76383209 150.69608116 C55.75889632 155.51011316 55.74862233 160.32410745 55.73439407 165.13812065 C55.72991553 166.89476937 55.72704311 168.65142313 55.72598648 170.40807724 C55.70498493 198.95242006 52.61464115 226.3139483 32.0625 247.98828125 C25.5107304 254.20626346 18.42339469 258.93306048 10.56640625 263.34765625 C9.40625 264.03794922 9.40625 264.03794922 8.22265625 264.7421875 C2.67838535 267.8169152 -3.21090191 269.67999149 -9.24609375 271.53515625 C-10.45471069 271.91051514 -10.45471069 271.91051514 -11.68774414 272.29345703 C-23.88363264 275.88412471 -36.04615172 276.75470702 -48.68359375 276.72265625 C-49.78944321 276.72283752 -49.78944321 276.72283752 -50.91763306 276.72302246 C-77.09898416 276.66235461 -109.54946123 273.5529977 -129.43359375 254.66015625 C-133.476629 249.98539675 -134.34347008 245.41598315 -134.43359375 239.34765625 C-133.45931231 230.96574292 -129.55598287 224.84358504 -123.1171875 219.609375 C-117.93970716 215.72926793 -113.9025664 215.4292119 -107.49951172 216.00585938 C-100.98621912 217.08345446 -94.79039269 219.96806217 -88.70361328 222.43261719 C-85.46761973 223.7370379 -82.20953598 224.9590973 -78.93359375 226.16015625 C-77.93328125 226.53785156 -76.93296875 226.91554688 -75.90234375 227.3046875 C-67.00737144 229.97918931 -58.31464932 230.70850931 -49.05859375 230.66015625 C-47.96023193 230.6559668 -46.86187012 230.65177734 -45.73022461 230.64746094 C-37.88851544 230.53815262 -30.89603164 229.90494663 -23.43359375 227.34765625 C-22.55058594 227.06921875 -21.66757813 226.79078125 -20.7578125 226.50390625 C-10.89111947 223.03035119 -3.11378744 216.79313807 1.56640625 207.34765625 C4.84508827 200.03412246 4.93214876 193.20552229 4.75390625 185.28515625 C4.74037109 184.13337891 4.72683594 182.98160156 4.71289062 181.79492188 C4.6778335 178.97866653 4.62869481 176.1634186 4.56640625 173.34765625 C4.12997803 173.80148682 3.6935498 174.25531738 3.24389648 174.72290039 C-13.27852102 191.62047213 -35.21540087 201.5315662 -58.87109375 201.84765625 C-78.59297557 201.6248559 -97.28047668 195.61997536 -113.43359375 184.34765625 C-114.42359375 183.68765625 -115.41359375 183.02765625 -116.43359375 182.34765625 C-116.43359375 181.68765625 -116.43359375 181.02765625 -116.43359375 180.34765625 C-117.15933594 180.10917969 -117.88507813 179.87070313 -118.6328125 179.625 C-135.30870784 172.01967535 -145.84813168 148.14385637 -152.20703125 131.8203125 C-163.42319733 100.06498879 -159.8899694 63.44329955 -145.58081055 33.41455078 C-137.07247131 16.24801511 -122.66200987 1.38585179 -106.43359375 -8.65234375 C-105.72460938 -9.09578125 -105.015625 -9.53921875 -104.28515625 -9.99609375 C-98.30718791 -13.5353963 -92.07585274 -15.68156361 -85.43359375 -17.65234375 C-84.72203125 -17.86890625 -84.01046875 -18.08546875 -83.27734375 -18.30859375 C-54.64583917 -26.28786552 -22.89996503 -18.28914386 0 0 Z M-95.43359375 43.34765625 C-101.82928621 51.29032125 -105.49108453 59.64193787 -108.43359375 69.34765625 C-108.79839844 70.3634375 -109.16320313 71.37921875 -109.5390625 72.42578125 C-113.71584833 87.35675674 -111.63300669 106.30478716 -105.43359375 120.34765625 C-105.04945312 121.2809375 -104.6653125 122.21421875 -104.26953125 123.17578125 C-98.49235916 135.98774113 -88.02509912 146.19696699 -75.43359375 152.34765625 C-60.48225084 157.47383096 -43.54452683 158.80977244 -28.68359375 152.53515625 C-10.45406894 143.58432842 -1.21879617 131.00753578 5.56640625 112.34765625 C5.95441406 111.30609375 6.34242188 110.26453125 6.7421875 109.19140625 C10.10109341 93.52712468 9.25165296 74.99152999 2.56640625 60.34765625 C2.12039063 59.3421875 1.674375 58.33671875 1.21484375 57.30078125 C-3.92467217 46.9068999 -11.97549021 38.8982687 -21.43359375 32.34765625 C-22.0059375 31.94804688 -22.57828125 31.5484375 -23.16796875 31.13671875 C-31.63979656 25.77122781 -41.50991503 24.81079736 -51.30859375 24.91015625 C-52.35998535 24.91772949 -53.41137695 24.92530273 -54.49462891 24.93310547 C-70.72703051 25.27698038 -84.25837665 31.40590802 -95.43359375 43.34765625 Z " fill="#FFBD09" transform="translate(1632.43359375,1362.65234375)"/>
<path d="M0 0 C5.85007504 5.09792254 9.00634794 10.3239328 10 18 C10.14525192 21.40723547 10.14353183 24.81117897 10.14044189 28.22113037 C10.14341302 29.24825646 10.14638414 30.27538254 10.1494453 31.33363366 C10.15811451 34.77418853 10.15963904 38.21470852 10.16113281 41.65527344 C10.16576221 44.12266107 10.17078703 46.59004799 10.17617798 49.05743408 C10.18929146 55.76001713 10.19578174 62.46258657 10.20018864 69.16517925 C10.20295525 73.35336877 10.20719334 77.54155599 10.21169281 81.72974396 C10.22388148 93.33477 10.23418194 104.93979421 10.2375679 116.54482651 C10.23789725 117.65799404 10.23789725 117.65799404 10.23823325 118.79364981 C10.23845153 119.53749351 10.23866981 120.28133721 10.2388947 121.04772162 C10.23933816 122.5549264 10.23978472 124.06213117 10.24023438 125.56933594 C10.24056652 126.69076415 10.24056652 126.69076415 10.24090537 127.83484748 C10.24485251 139.94600877 10.26230574 152.05710986 10.2855939 164.16824791 C10.30933241 176.61444512 10.32177087 189.06061215 10.32293582 201.50683236 C10.32385112 208.49016111 10.32956684 215.47341137 10.34775543 222.45671844 C10.36480685 229.02635137 10.36639039 235.59586191 10.35761642 242.16551971 C10.3568462 244.57371418 10.36118677 246.98191665 10.37107468 249.39009094 C10.38380345 252.6838822 10.37791189 255.97714709 10.36749268 259.27093506 C10.37957728 260.69188182 10.37957728 260.69188182 10.39190602 262.14153457 C10.32383993 271.37587412 8.55431244 279.54915376 2.00390625 286.3046875 C-4.07299743 291.4457717 -10.27505929 292.67663585 -18.1328125 292.38671875 C-24.92904025 291.47006133 -29.57479769 288.16273603 -34 283 C-36.88114899 279.1310285 -38.67484885 275.63802901 -40 271 C-40.94875 271.845625 -41.8975 272.69125 -42.875 273.5625 C-62.54448319 290.22692326 -84.6943031 297.67938206 -110.37548828 296.22753906 C-131.51031959 294.39519834 -151.7111524 284.51996938 -167 270 C-167 269.34 -167 268.68 -167 268 C-167.66 268 -168.32 268 -169 268 C-169 267.34 -169 266.68 -169 266 C-169.66 266 -170.32 266 -171 266 C-172.67530349 264.07761938 -174.22178348 262.15989643 -175.75 260.125 C-176.19956055 259.53001709 -176.64912109 258.93503418 -177.11230469 258.32202148 C-197.07446118 231.5656897 -203.19947531 197.76450704 -199 165 C-194.20077981 135.31639131 -179.87600527 108.54963688 -155.64746094 90.18164062 C-135.59558098 75.79943864 -111.1715989 71.29354769 -86.89453125 74.46875 C-70.06438708 77.44816435 -54.4783996 84.49085179 -41 95 C-39.06459798 93.06459798 -39.84609401 89.40178031 -39.84228516 86.76147461 C-39.83720444 86.00364685 -39.83212372 85.24581909 -39.82688904 84.46502686 C-39.81615996 82.81280118 -39.80754981 81.16056074 -39.80076981 79.50831413 C-39.78900244 76.88897448 -39.76955186 74.26980133 -39.74765015 71.65052795 C-39.6859859 64.20075067 -39.63211251 56.75098668 -39.59863281 49.30102539 C-39.57761857 44.7480137 -39.54225217 40.19529921 -39.49787521 35.64245796 C-39.4837581 33.91025876 -39.4750025 32.1780069 -39.47182083 30.4457531 C-39.46688008 28.01161815 -39.44363897 25.57826221 -39.41650391 23.14428711 C-39.42101311 22.08172447 -39.42101311 22.08172447 -39.4256134 20.99769592 C-39.31838861 14.4802 -37.68915028 7.96662583 -32.9375 3.25 C-23.28235528 -5.65147309 -11.25963339 -6.03194646 0 0 Z M-137.41796875 138.72265625 C-150.36219376 154.83247062 -154.52478185 175.22979873 -152.56640625 195.58203125 C-149.41899316 214.57504129 -140.64299936 231.38681312 -125 243 C-111.16183456 252.13841114 -94.83787055 252.11200263 -79 249 C-76.13213742 248.28185319 -73.63164948 247.34044516 -71 246 C-70.22527344 245.61199219 -69.45054687 245.22398437 -68.65234375 244.82421875 C-53.32929746 236.41667403 -44.4956747 222.27241306 -39.3515625 205.94140625 C-34.41268139 187.00902868 -36.61515419 164.47703136 -46.40625 147.55859375 C-54.35457429 134.79841627 -63.91445756 125.04852417 -78.75 120.96875 C-101.76773376 115.9568241 -121.60906221 120.92167425 -137.41796875 138.72265625 Z " fill="#FFBD09" transform="translate(2962,1268)"/>
<path d="M0 0 C1.10214844 0.76763672 1.10214844 0.76763672 2.2265625 1.55078125 C3.82935417 2.68422954 5.41697006 3.83911138 7 5 C7.00257813 4.443125 7.00515625 3.88625 7.0078125 3.3125 C7.3415943 -3.27412749 9.29267352 -7.37331295 14 -12 C21.91851287 -17.92052075 28.10831466 -18.750854 38 -18 C44.52473463 -16.37140964 49.50937354 -11.62918747 53 -6 C56.72554666 2.51681191 56.43141587 10.90792739 56.40405273 20.01928711 C56.40976213 21.73836204 56.41672859 23.45743319 56.42485046 25.17649841 C56.44273368 29.82530404 56.44162267 34.47392041 56.43590808 39.12275004 C56.43280934 43.01181147 56.43891626 46.90083691 56.44494683 50.78989321 C56.45897444 59.96827655 56.45744534 69.14656678 56.44604492 78.32495117 C56.4345641 87.77661854 56.44864281 97.22800214 56.4754414 106.67963213 C56.49763025 114.81155766 56.50422864 122.94339432 56.49836498 131.07534796 C56.49500199 135.92473593 56.49736675 140.77394201 56.51461601 145.62330437 C56.53013403 150.18465119 56.52607598 154.745579 56.50731087 159.30690956 C56.50363846 160.97493792 56.50669389 162.64299767 56.51719666 164.31099701 C56.58321727 175.66847518 55.91148294 185.86552914 47.6796875 194.52734375 C41.98702867 199.51834928 36.54225702 200.67289769 29.03125 200.37890625 C22.47420078 199.5592751 17.05100313 197.59874672 12.5625 192.625 C9.14386107 188.10544344 6.83076838 183.64922496 6 178 C5.13375 178.969375 4.2675 179.93875 3.375 180.9375 C-11.78797887 196.1313607 -33.88269901 204.1826678 -55 204.25 C-77.28144553 204.24030989 -100.13837409 197.09321149 -117 182 C-118.78565871 180.07129128 -120.37017405 178.07031945 -122 176 C-122.763125 175.2575 -123.52625 174.515 -124.3125 173.75 C-146.05879582 151.49797637 -154.41848199 120.9048304 -154.234375 90.41210938 C-153.62863861 57.4247149 -141.40190343 27.57639347 -117.77734375 4.53515625 C-106.50225409 -5.75673291 -92.70716286 -12.24778794 -78 -16 C-77.18015625 -16.22558594 -76.3603125 -16.45117188 -75.515625 -16.68359375 C-49.09237761 -22.78450278 -21.77820606 -15.23027368 0 0 Z M-89.93359375 44.54296875 C-93.46092055 48.737087 -96.27907546 53.2543666 -99 58 C-99.40089844 58.65484375 -99.80179688 59.3096875 -100.21484375 59.984375 C-109.56381819 76.49501666 -108.03066095 98.20288501 -104 116 C-102.95138783 119.51778015 -101.65171514 122.72627682 -100 126 C-99.64164063 126.74121094 -99.28328125 127.48242188 -98.9140625 128.24609375 C-91.78859407 142.04272222 -81.44218042 151.35633241 -67 157 C-59.80202 158.76585958 -52.39757256 159.54158601 -45 159 C-44.04996094 158.94328125 -43.09992188 158.8865625 -42.12109375 158.828125 C-28.95145677 157.47076364 -17.00534942 151.42756219 -8.109375 141.62109375 C6.33524189 123.6723198 9.49988677 103.38955969 8 81 C5.81042095 63.22019703 -3.26238688 48.18851665 -16.78125 36.68359375 C-39.10523032 19.7440946 -71.33779859 25.01572053 -89.93359375 44.54296875 Z " fill="#FFBE09" transform="translate(1878,1360)"/>
<path d="M0 0 C6.50852455 4.33901636 9.34406834 8.53095873 11.19184494 16.11962891 C11.90530925 19.83452669 11.93346113 23.49631769 11.94384766 27.26953125 C11.95389328 28.1192601 11.9639389 28.96898895 11.97428894 29.84446716 C12.00493574 32.62547185 12.02210419 35.40638109 12.0390625 38.1875 C12.05778906 40.12663585 12.07736357 42.06576368 12.0977478 44.00488281 C12.14891779 49.08794409 12.18862425 54.17103174 12.22589111 59.25421143 C12.26602595 64.44948775 12.31707492 69.64465579 12.3671875 74.83984375 C12.46376747 85.01815293 12.54822929 95.19652347 12.625 105.375 C13.615 103.89 13.615 103.89 14.625 102.375 C15.285 102.375 15.945 102.375 16.625 102.375 C16.625 101.715 16.625 101.055 16.625 100.375 C17.285 100.375 17.945 100.375 18.625 100.375 C18.625 99.715 18.625 99.055 18.625 98.375 C34.4782611 83.31900155 54.07103559 73.79397379 76.10498047 74.09179688 C88.38838029 74.45558614 99.5100315 75.67501615 110.625 81.375 C111.50929688 81.8184375 112.39359375 82.261875 113.3046875 82.71875 C127.46165798 90.46420497 135.00001109 104.86060132 139.4375 119.875 C140.23469564 122.70691519 140.94876562 125.51516347 141.625 128.375 C141.87174973 129.26249435 142.11849945 130.14998871 142.37272644 131.06437683 C145.58136936 144.19373396 145.10135689 157.58383399 145.09383965 171.01930451 C145.09371867 173.8872045 145.10233231 176.75505519 145.11061716 179.6229412 C145.12973288 186.39083327 145.132776 193.15860203 145.12597656 199.92651367 C145.1193191 206.88018319 145.14229528 213.83332456 145.17929029 220.78688699 C145.2100631 226.79157307 145.22133992 232.79608968 145.21745348 238.80085295 C145.21539667 242.37256907 145.22070061 245.94387205 145.24534607 249.51551247 C145.27190892 253.49468119 145.25782746 257.47316294 145.24023438 261.45239258 C145.25349762 262.61782089 145.26676086 263.78324921 145.28042603 264.98399353 C145.19799403 273.03188902 143.62913948 279.78450893 138.21773529 285.98833942 C131.94416641 291.64822417 125.81730156 292.97065548 117.62109375 292.71484375 C109.72740677 291.81947117 105.01638151 288.40428447 100.03515625 282.375 C95.10335955 275.38031881 95.47288935 267.8790557 95.45141602 259.61889648 C95.444729 258.54650223 95.43804199 257.47410797 95.43115234 256.36921692 C95.41712826 254.04483093 95.40522585 251.72043139 95.39520454 249.3960247 C95.37873607 245.70798219 95.35549331 242.02003919 95.33030701 238.33204651 C95.25970992 227.84731042 95.19959363 217.36253298 95.14819336 206.87768555 C95.11624731 200.45810735 95.07492977 194.03864306 95.02799797 187.61915779 C95.01206772 185.18214038 94.99970519 182.74509677 94.99109077 180.30804253 C95.70790219 152.01746489 95.70790219 152.01746489 83.625 127.375 C72.86887833 119.85669046 59.84942502 119.12760616 47.1875 120.83984375 C35.32620226 123.20371087 26.73021376 128.54796716 19.625 138.375 C13.84824734 147.85592994 12.32643788 156.65704468 12.35375977 167.58935547 C12.34591965 169.23487396 12.34591965 169.23487396 12.33792114 170.91363525 C12.32771591 173.28491671 12.32190683 175.65622036 12.32003975 178.02752304 C12.31636303 181.78636787 12.2996003 185.54495194 12.27928162 189.30374146 C12.2309726 198.63864789 12.19925796 207.97358926 12.17797852 217.30859375 C12.1599591 225.20215511 12.13048712 233.09553021 12.08393669 240.98898697 C12.07232067 243.47593328 12.06635664 245.96291289 12.06625557 248.44988632 C12.06606261 251.93407264 12.04772966 255.41774877 12.02563477 258.90185547 C12.03021194 259.91931854 12.03478912 260.93678162 12.039505 261.9850769 C11.94472959 271.42937775 10.34964459 279.74848762 3.62890625 286.6796875 C-2.36729431 291.75249655 -8.6117723 293.12887823 -16.3828125 292.8125 C-24.70214339 291.59609653 -29.97348679 287.48610252 -35 280.94921875 C-38.58167683 274.24374991 -38.66650188 267.2936077 -38.64242554 259.87539673 C-38.64695665 258.84247824 -38.65148776 257.80955975 -38.65615618 256.7453407 C-38.66877862 253.29714081 -38.66718119 249.84909929 -38.66552734 246.40087891 C-38.67151386 243.92334287 -38.67831969 241.4458087 -38.68588257 238.96827698 C-38.70170328 232.94478779 -38.70799031 226.92136046 -38.70910732 220.89785625 C-38.7100595 215.99967171 -38.71417822 211.10150002 -38.72050858 206.20331955 C-38.73810905 192.30084015 -38.74734912 178.39839156 -38.74584763 164.49590094 C-38.74576772 163.74734152 -38.7456878 162.9987821 -38.74560547 162.22753906 C-38.74552371 161.47806064 -38.74544195 160.72858222 -38.74535771 159.95639233 C-38.74454478 147.80976683 -38.7636873 135.66326531 -38.7918822 123.51667567 C-38.82063738 111.02972825 -38.8344211 98.54284127 -38.83269465 86.05585992 C-38.83203174 79.05130228 -38.83748081 72.04687469 -38.85905075 65.04234695 C-38.87920818 58.45459721 -38.87856203 51.86707481 -38.86401749 45.27929497 C-38.86192757 42.86464855 -38.86664109 40.44998498 -38.8787384 38.03536797 C-38.89421004 34.73278078 -38.88486912 31.4311379 -38.86947632 28.12857056 C-38.87976344 27.17874601 -38.89005057 26.22892146 -38.90064943 25.25031435 C-38.81628195 17.02897243 -36.74541987 9.81103687 -31.3125 3.5 C-22.28896756 -4.61925521 -10.50373679 -5.78872605 0 0 Z " fill="#FFBD09" transform="translate(2184.375,1267.625)"/>
<path d="M0 0 C5.07965053 4.08939375 7.35073767 8.53993504 9.1640625 14.7421875 C9.42577553 17.80746269 9.42577553 17.80746269 9.4425354 21.12033081 C9.45369888 22.38228775 9.46486237 23.64424469 9.47636414 24.94444275 C9.4787287 26.32998627 9.48090442 27.71553013 9.48291016 29.10107422 C9.49221503 30.56992643 9.50238454 32.03877339 9.51335144 33.50761414 C9.54060248 37.4843936 9.55578629 41.46113773 9.56877947 45.4379859 C9.58443147 49.59803147 9.61121509 53.75800513 9.6368103 57.91799927 C9.68356148 65.79074189 9.72032329 73.66349809 9.75348318 81.53630841 C9.79173045 90.50125495 9.84113378 99.46612921 9.89146733 108.43101478 C9.99473272 126.86801941 10.08401064 145.30506819 10.1640625 163.7421875 C10.78450439 163.10603516 10.78450439 163.10603516 11.41748047 162.45703125 C13.28614171 160.54691417 15.16245753 158.64449939 17.0390625 156.7421875 C17.69003906 156.07445312 18.34101563 155.40671875 19.01171875 154.71875 C19.63691406 154.08710937 20.26210937 153.45546875 20.90625 152.8046875 C21.4822998 152.21816406 22.05834961 151.63164063 22.65185547 151.02734375 C24.1640625 149.7421875 24.1640625 149.7421875 26.1640625 149.7421875 C26.1640625 149.0821875 26.1640625 148.4221875 26.1640625 147.7421875 C26.8240625 147.7421875 27.4840625 147.7421875 28.1640625 147.7421875 C28.1640625 147.0821875 28.1640625 146.4221875 28.1640625 145.7421875 C29.421875 144.5078125 29.421875 144.5078125 31.2890625 142.9921875 C36.31020313 138.75672894 40.85112739 134.08289692 45.41455078 129.36621094 C45.99962402 128.76969727 46.58469727 128.17318359 47.1875 127.55859375 C47.71263184 127.01662354 48.23776367 126.47465332 48.77880859 125.91625977 C50.1640625 124.7421875 50.1640625 124.7421875 52.1640625 124.7421875 C52.1640625 124.0821875 52.1640625 123.4221875 52.1640625 122.7421875 C52.8240625 122.7421875 53.4840625 122.7421875 54.1640625 122.7421875 C54.1640625 122.0821875 54.1640625 121.4221875 54.1640625 120.7421875 C55.51416016 119.41772461 55.51416016 119.41772461 57.453125 117.83203125 C61.03120293 114.79090155 64.39339468 111.58934699 67.6875 108.24609375 C68.16398987 107.76393402 68.64047974 107.28177429 69.13140869 106.78500366 C71.10956782 104.77981507 73.08337839 102.77043752 75.05322266 100.75708008 C76.51034693 99.26994368 77.97348007 97.78893745 79.4375 96.30859375 C80.29778809 95.43146729 81.15807617 94.55434082 82.04443359 93.65063477 C84.1640625 91.7421875 84.1640625 91.7421875 86.1640625 91.7421875 C86.1640625 91.0821875 86.1640625 90.4221875 86.1640625 89.7421875 C86.8240625 89.7421875 87.4840625 89.7421875 88.1640625 89.7421875 C88.1640625 89.0821875 88.1640625 88.4221875 88.1640625 87.7421875 C93.64025298 82.7421875 93.64025298 82.7421875 96.1640625 82.7421875 C96.1640625 82.0821875 96.1640625 81.4221875 96.1640625 80.7421875 C102.46500996 77.33297921 107.980559 75.4880996 115.1640625 76.7421875 C123.72931928 79.60149036 128.78346089 84.37775121 133.0390625 92.1796875 C134.86848228 97.97285014 135.1312455 103.24694123 132.37109375 108.85546875 C126.40713129 118.17777901 117.16599323 125.57521412 109.07177734 132.99169922 C107.23826189 134.67410334 105.41260207 136.36454842 103.58984375 138.05859375 C98.42218813 142.85718394 93.22515845 147.60676773 87.87890625 152.20703125 C86.102554 153.79725092 84.44653261 155.46657091 82.7890625 157.1796875 C80.1640625 159.7421875 80.1640625 159.7421875 78.1640625 159.7421875 C78.1640625 160.4021875 78.1640625 161.0621875 78.1640625 161.7421875 C76.51953125 163.36328125 76.51953125 163.36328125 74.3515625 165.1796875 C70.58895888 168.28473991 70.58895888 168.28473991 67.1640625 171.7421875 C67.37472678 175.1128159 68.80831659 176.48886533 71.1640625 178.7421875 C71.1640625 179.4021875 71.1640625 180.0621875 71.1640625 180.7421875 C71.8240625 180.7421875 72.4840625 180.7421875 73.1640625 180.7421875 C74.46875 182.03515625 74.46875 182.03515625 76.0390625 183.9296875 C79.38807109 187.87094182 82.84040526 191.69600942 86.3515625 195.4921875 C87.11799072 196.32399536 87.11799072 196.32399536 87.89990234 197.17260742 C90.06379303 199.51287534 92.22521881 201.80081669 94.52734375 204.0078125 C96.1640625 205.7421875 96.1640625 205.7421875 96.1640625 207.7421875 C96.8240625 207.7421875 97.4840625 207.7421875 98.1640625 207.7421875 C99.46875 209.03515625 99.46875 209.03515625 101.0390625 210.9296875 C103.38489287 213.70293612 105.77177986 216.41505626 108.2578125 219.0625 C108.79809082 219.63846924 109.33836914 220.21443848 109.89501953 220.80786133 C110.98117138 221.96191783 112.0706374 223.11286512 113.16357422 224.26049805 C115.48552804 226.73831516 117.07683048 228.48049143 118.1640625 231.7421875 C118.8240625 231.7421875 119.4840625 231.7421875 120.1640625 231.7421875 C121.75 233.3515625 121.75 233.3515625 123.5390625 235.4921875 C125.50163977 237.81122452 127.422892 239.99438034 129.6015625 242.1171875 C131.1640625 243.7421875 131.1640625 243.7421875 131.1640625 245.7421875 C131.8240625 245.7421875 132.4840625 245.7421875 133.1640625 245.7421875 C138.66589386 252.30805229 142.72042981 258.79227782 142.484375 267.59375 C141.58762565 273.60853221 138.43112094 279.47512906 134.1640625 283.7421875 C127.62633499 288.55429165 121.45037819 291.45652506 113.1640625 290.7421875 C106.37413534 289.23938672 102.04205874 285.50404097 97.1640625 280.7421875 C96.66197266 280.25911133 96.15988281 279.77603516 95.64257812 279.27832031 C93.97460434 277.6705515 92.31730572 276.05259375 90.6640625 274.4296875 C90.12297852 273.90189697 89.58189453 273.37410645 89.02441406 272.83032227 C87.69794857 271.50620563 86.42586273 270.12806475 85.1640625 268.7421875 C85.1640625 268.0821875 85.1640625 267.4221875 85.1640625 266.7421875 C84.5040625 266.7421875 83.8440625 266.7421875 83.1640625 266.7421875 C81.7890625 265.34375 81.7890625 265.34375 80.1640625 263.3671875 C76.40184238 258.91297341 72.30347968 254.88535218 68.10546875 250.84375 C66.1640625 248.7421875 66.1640625 248.7421875 66.1640625 246.7421875 C65.5040625 246.7421875 64.8440625 246.7421875 64.1640625 246.7421875 C62.69458008 245.26904297 62.69458008 245.26904297 60.99609375 243.234375 C57.39333002 238.99900807 53.6594214 234.91822819 49.8515625 230.8671875 C49.20437256 230.17608887 48.55718262 229.48499023 47.89038086 228.77294922 C43.31725889 223.91000146 38.6419013 219.1843418 33.82421875 214.5625 C32.1640625 212.7421875 32.1640625 212.7421875 32.1640625 210.7421875 C31.5040625 210.7421875 30.8440625 210.7421875 30.1640625 210.7421875 C30.1640625 210.0821875 30.1640625 209.4221875 30.1640625 208.7421875 C25.75315843 209.22715601 23.93668839 210.55828251 20.9765625 213.8046875 C19.7402422 215.14974725 18.47601102 216.47078485 17.1640625 217.7421875 C16.5040625 217.7421875 15.8440625 217.7421875 15.1640625 217.7421875 C15.1640625 218.4021875 15.1640625 219.0621875 15.1640625 219.7421875 C14.35074463 220.23058105 13.53742676 220.71897461 12.69946289 221.22216797 C9.35400179 224.54733403 9.58157064 226.53650713 9.54771423 231.10476685 C9.5641951 232.08081879 9.58067596 233.05687073 9.59765625 234.0625 C9.58920433 235.58325638 9.58920433 235.58325638 9.58058167 237.13473511 C9.56411381 240.3793539 9.57966573 243.62261597 9.6015625 246.8671875 C9.61821835 250.09021507 9.62713947 253.31232705 9.61183167 256.53536987 C9.60263938 258.53889283 9.61141853 260.54261021 9.64146423 262.54592896 C9.61138417 270.33704688 7.99309043 277.24448025 3.015625 283.3984375 C-4.14962092 289.33176395 -9.36245529 291.31850123 -18.73828125 291.109375 C-26.00809302 290.24763186 -31.1736904 286.9859325 -35.8359375 281.4296875 C-41.10821944 274.57318623 -41.13022108 266.51787155 -41.10336304 258.24258423 C-41.10789415 257.20966574 -41.11242526 256.17674725 -41.11709368 255.1125282 C-41.12971612 251.66432831 -41.12811869 248.21628679 -41.12646484 244.76806641 C-41.13245136 242.29053037 -41.13925719 239.8129962 -41.14682007 237.33546448 C-41.16264078 231.31197529 -41.16892781 225.28854796 -41.17004482 219.26504375 C-41.170997 214.36685921 -41.17511572 209.46868752 -41.18144608 204.57050705 C-41.19904655 190.66802765 -41.20828662 176.76557906 -41.20678513 162.86308844 C-41.20670522 162.11452902 -41.2066253 161.3659696 -41.20654297 160.59472656 C-41.20646121 159.84524814 -41.20637945 159.09576972 -41.20629521 158.32357983 C-41.20548228 146.17695433 -41.2246248 134.03045281 -41.2528197 121.88386317 C-41.28157488 109.39691575 -41.2953586 96.91002877 -41.29363215 84.42304742 C-41.29296924 77.41848978 -41.29841831 70.41406219 -41.31998825 63.40953445 C-41.34014568 56.82178471 -41.33949953 50.23426231 -41.32495499 43.64648247 C-41.32286507 41.23183605 -41.32757859 38.81717248 -41.3396759 36.40255547 C-41.35514754 33.09996828 -41.34580662 29.7983254 -41.33041382 26.49575806 C-41.34070094 25.54593351 -41.35098807 24.59610896 -41.36158693 23.61750185 C-41.27592879 15.27038901 -39.2405032 8.00459075 -33.4609375 1.8046875 C-23.55283365 -7.19305638 -10.92860347 -7.25104167 0 0 Z " fill="#FFBE0A" transform="translate(3501.8359375,1269.2578125)"/>
<path d="M0 0 C0.9384375 0.41894531 1.876875 0.83789062 2.84375 1.26953125 C29.69475415 13.82998809 48.69831218 37.87898815 58.6875 65.375 C61.62689883 75.01552831 63.27296354 84.50417849 63.375 94.5625 C63.38877686 95.31200928 63.40255371 96.06151855 63.41674805 96.83374023 C63.36065971 103.48133023 61.07348188 108.53097196 56.6102581 113.55714893 C49.15325961 120.23889654 40.86734111 120.70592248 31.28857422 120.56762695 C29.93736321 120.56621355 28.58614837 120.56701416 27.23493958 120.56983948 C23.59687421 120.5712637 19.95964695 120.54203786 16.32177496 120.50696969 C12.50884183 120.47553827 8.69588572 120.47276232 4.88284302 120.46684265 C-2.32415695 120.45135315 -9.53077396 120.41039182 -16.73760593 120.3600952 C-24.94802636 120.30404844 -33.15846588 120.27667687 -41.36903024 120.25161803 C-58.24624101 120.19947091 -75.12307991 120.11162498 -92 120 C-91.37655202 121.91108969 -90.74956041 123.82102358 -90.12109375 125.73046875 C-89.77232178 126.79418701 -89.4235498 127.85790527 -89.06420898 128.95385742 C-87.14445817 134.44886338 -84.67392948 139.17794745 -81.25 143.875 C-79 147 -79 147 -79 149 C-78.4121875 149.26296875 -77.824375 149.5259375 -77.21875 149.796875 C-74.90429111 151.05189848 -73.38064739 152.41884333 -71.5 154.25 C-57.96394783 166.32677517 -40.42402428 168.69549677 -23 168 C-10.78078839 167.07027738 -1.16289498 163.55869825 9.3125 157.3125 C17.63893816 152.36397086 25.31223081 150.68640418 35 152 C40.8048469 154.31512956 45.17400688 158.33241556 48.19140625 163.79296875 C50.1722264 169.19955515 49.54975709 174.22856048 47.875 179.625 C38.08912619 197.23957286 19.51461429 204.85406012 0.89453125 210.2265625 C-28.8936503 218.18615757 -62.34132584 215.27198314 -89.36328125 200.1640625 C-94.52930137 197.16725273 -99.26525365 193.62770134 -104 190 C-104.99 189.34 -105.98 188.68 -107 188 C-107 187.34 -107 186.68 -107 186 C-107.84304687 185.65388672 -107.84304687 185.65388672 -108.703125 185.30078125 C-123.95999984 176.66040825 -132.69165574 154.72298949 -137.2890625 138.67578125 C-145.62134888 107.45838991 -142.42087224 71.94938905 -126.2890625 43.7734375 C-111.70346099 19.31714345 -90.37472134 1.97688652 -62.8671875 -5.58642578 C-42.06755109 -10.68408948 -19.43748037 -9.23280318 0 0 Z M-81.94921875 55.30078125 C-84.02070402 58.02725043 -85.62186944 60.70728354 -87.1875 63.75 C-87.69667969 64.71421875 -88.20585937 65.6784375 -88.73046875 66.671875 C-90.47233826 70.82007943 -90.47233826 70.82007943 -91 79 C-57.67 79 -24.34 79 10 79 C11.77707425 75.4458515 10.08892632 71.66703295 9 68 C4.06772763 55.3743267 -5.25004123 46.71609878 -17.42578125 41.06640625 C-39.51664734 31.9149549 -66.24019519 36.75846687 -81.94921875 55.30078125 Z " fill="#FFBD09" transform="translate(2509,1350)"/>
<path d="M0 0 C8.87965236 7.31693046 16.85165115 15.51022374 22.86328125 25.359375 C23.84554687 26.92751953 23.84554687 26.92751953 24.84765625 28.52734375 C34.67780114 44.65174336 39.98564761 61.93057831 40.30078125 80.859375 C40.33437744 82.11476074 40.33437744 82.11476074 40.36865234 83.39550781 C40.34156079 90.49919747 38.15167925 95.49377701 33.05078125 100.609375 C32.61121094 101.06828125 32.17164062 101.5271875 31.71875 102 C24.731445 107.1191203 17.8659649 106.77186503 9.49243164 106.69995117 C8.14166279 106.69910394 6.79089256 106.69958192 5.44012451 106.70127869 C1.7897066 106.70213632 -1.86041311 106.68454847 -5.51076198 106.66355681 C-9.33174915 106.64475114 -13.15274383 106.64303652 -16.97377014 106.63948059 C-24.20200158 106.63017151 -31.43009624 106.60557324 -38.65826756 106.57543212 C-46.89041838 106.5418526 -55.12257587 106.52539319 -63.35477817 106.51034582 C-80.2821707 106.47902259 -97.20943024 106.42628435 -114.13671875 106.359375 C-113.53156066 108.40918951 -112.9195238 110.45697387 -112.3046875 112.50390625 C-111.9646167 113.64448486 -111.6245459 114.78506348 -111.27416992 115.96020508 C-106.61967548 129.86974063 -97.2025972 140.7457822 -84.13671875 147.359375 C-81.43737821 148.5671551 -78.70947336 149.67374981 -75.94921875 150.734375 C-74.96973267 151.11094238 -74.96973267 151.11094238 -73.97045898 151.49511719 C-57.17655648 157.55893594 -36.63400892 155.40740035 -20.64746094 148.11035156 C-16.54387717 146.15325776 -12.61104834 144.04712761 -8.91015625 141.40234375 C-2.41265833 137.58112801 4.57001264 137.79046274 11.86328125 138.359375 C17.75395046 140.10475847 21.33092832 144.50703755 24.86328125 149.359375 C27.44087482 154.40716241 27.01875171 158.95412334 25.86328125 164.359375 C21.08672249 177.84612914 7.49359078 184.73735548 -4.57421875 190.609375 C-11.24376014 193.58079296 -18.07587362 195.55047037 -25.13671875 197.359375 C-25.91015625 197.57464844 -26.68359375 197.78992187 -27.48046875 198.01171875 C-36.01760761 200.33232991 -44.65182139 200.55414978 -53.44921875 200.546875 C-54.97542847 200.5456665 -54.97542847 200.5456665 -56.5324707 200.54443359 C-63.60116342 200.4867115 -70.22077564 199.83988378 -77.13671875 198.359375 C-79.11565652 198.08687421 -81.0948316 197.81609216 -83.07421875 197.546875 C-99.73877613 194.72971966 -115.16982184 185.86100858 -128.13671875 175.359375 C-128.7915625 174.85792969 -129.44640625 174.35648438 -130.12109375 173.83984375 C-150.43646504 157.67141751 -160.65548939 130.8794142 -163.76171875 105.859375 C-164.85510945 93.21580258 -164.31031727 80.85756648 -162.13671875 68.359375 C-161.99234375 67.33328125 -161.84796875 66.3071875 -161.69921875 65.25 C-157.93358096 39.29399667 -142.46593133 14.17860129 -121.70751953 -1.79321289 C-84.13371537 -29.26361077 -36.97246306 -27.60895939 0 0 Z M-104.82421875 41.359375 C-109.60579047 47.40056354 -112.46956256 53.83800941 -114.13671875 61.359375 C-113.80671875 62.679375 -113.47671875 63.999375 -113.13671875 65.359375 C-79.80671875 65.359375 -46.47671875 65.359375 -12.13671875 65.359375 C-13.68409779 51.43296361 -17.97417561 43.72352927 -28.13671875 34.359375 C-51.27776327 16.90760688 -85.51229468 19.62149022 -104.82421875 41.359375 Z " fill="#FFBD09" transform="translate(3174.13671875,1363.640625)"/>
<path d="M0 0 C6.09973671 5.27085263 9.65635343 10.70071493 10.5625 18.80078125 C10.86576938 26.75654787 9.66938025 32.8295105 4.51171875 39.01171875 C0.5529184 42.90730472 -2.81635974 44.9092936 -8.41796875 45.0625 C-9.19011719 45.02125 -9.96226562 44.98 -10.7578125 44.9375 C-11.54027344 44.89625 -12.32273437 44.855 -13.12890625 44.8125 C-19.85608845 43.95142068 -24.35397553 40.7593261 -29.8125 36.90625 C-42.58979984 28.36545542 -58.58860741 27.37073116 -73.4453125 29.625 C-90.09002612 33.14218651 -102.45898867 41.97947602 -111.7578125 55.9375 C-117.41753222 64.92646662 -120.36007734 76.37157914 -120.7578125 86.9375 C-120.79777344 87.98292969 -120.83773437 89.02835938 -120.87890625 90.10546875 C-121.27549374 111.12460554 -116.04939162 128.05721337 -102.03515625 143.8828125 C-92.77707305 152.95776878 -79.52925378 158.22255927 -66.7578125 158.9375 C-65.78585938 158.99421875 -64.81390625 159.0509375 -63.8125 159.109375 C-49.63089479 159.48755114 -35.91284209 157.73984893 -24.37890625 149.109375 C-17.7266544 144.30051824 -10.76834382 143.89652749 -2.7578125 144.9375 C3.11895984 147.08404834 7.87134574 151.7237759 11.2421875 156.9375 C13.33876248 162.9476816 13.10389314 170.44308893 11.0546875 176.375 C9.00424942 179.27389522 6.8722393 181.54654382 4.2421875 183.9375 C3.55576172 184.62972656 3.55576172 184.62972656 2.85546875 185.3359375 C-16.91166456 204.15703672 -50.06402539 205.68981457 -75.70996094 205.07373047 C-97.29063797 204.10913436 -117.37020805 195.89617246 -133.7578125 181.9375 C-134.51707031 181.31101562 -135.27632812 180.68453125 -136.05859375 180.0390625 C-141.40947192 175.48856779 -145.72670206 170.68009482 -149.7578125 164.9375 C-150.4796875 163.93074219 -151.2015625 162.92398437 -151.9453125 161.88671875 C-169.75913022 136.20818941 -174.82748088 101.91818796 -169.50390625 71.4453125 C-169.25769531 70.28773437 -169.01148437 69.13015625 -168.7578125 67.9375 C-168.60715332 67.22174805 -168.45649414 66.50599609 -168.30126953 65.76855469 C-165.71951273 53.88900131 -161.76445558 43.49237084 -155.7578125 32.9375 C-155.21382812 31.95394531 -154.66984375 30.97039062 -154.109375 29.95703125 C-149.79539226 22.66534823 -142.08993649 10.71487466 -133.7578125 7.9375 C-133.2628125 6.4525 -133.2628125 6.4525 -132.7578125 4.9375 C-130.67958323 3.38105155 -128.64380219 1.99016787 -126.4453125 0.625 C-125.81447754 0.22837158 -125.18364258 -0.16825684 -124.53369141 -0.5769043 C-89.59462148 -22.22403215 -33.89579095 -26.55337926 0 0 Z " fill="#FFBD09" transform="translate(3411.7578125,1359.0625)"/>
<path d="M0 0 C6.14537366 3.51164209 11.5225964 7.87297296 13.72143555 14.83691406 C15.21616168 22.04398394 15.29388413 29.03449509 15.1875 36.375 C15.17847656 37.56996094 15.16945313 38.76492188 15.16015625 39.99609375 C15.13681077 42.91427834 15.10406656 45.83202776 15.0625 48.75 C15.98998047 48.73428955 16.91746094 48.7185791 17.87304688 48.70239258 C21.34706322 48.65095943 24.82066906 48.61350318 28.29492188 48.58520508 C29.79238307 48.57021112 31.28980105 48.54980895 32.78710938 48.52368164 C50.86042307 48.21643531 50.86042307 48.21643531 57.8125 54.0625 C63.25035611 60.55771702 65.50980663 65.34611886 65.3984375 73.765625 C64.62869755 80.60377987 61.48969174 85.97996979 56.1875 90.3125 C50.85760583 94.24859339 44.19534965 93.87503369 37.81640625 93.84765625 C37.16042953 93.8462413 36.50445282 93.84482635 35.82859802 93.84336853 C33.76068298 93.83783031 31.69288158 93.82529002 29.625 93.8125 C28.21159012 93.80747699 26.79817852 93.8029155 25.38476562 93.79882812 C21.94397432 93.78788126 18.50324828 93.77066038 15.0625 93.75 C15.12310209 108.10183459 15.20084494 122.45348917 15.29821491 136.80512333 C15.34292992 143.46927956 15.38218377 150.133353 15.40893555 156.79760742 C15.43495686 163.22975101 15.47535169 169.66165887 15.52568626 176.09365654 C15.54236277 178.54678857 15.55387215 180.99996139 15.56011391 183.45314217 C15.5697461 186.89096884 15.59779639 190.32819132 15.63012695 193.76586914 C15.62869186 194.77863419 15.62725677 195.79139923 15.6257782 196.83485413 C15.70186242 202.56078743 16.25878325 206.71198592 19.0625 211.75 C23.93837047 215.43663377 29.19114129 215.34101135 35.0625 214.75 C36.01125 214.42 36.96 214.09 37.9375 213.75 C43.44659256 211.98709038 49.88303032 211.25944648 55.25390625 213.77734375 C60.52471044 217.88697725 63.20885394 223.51888473 64.51171875 229.9765625 C65.04530267 236.68786246 62.24409184 241.66633089 58.0625 246.75 C47.62435619 256.93114405 33.03330589 259.49695346 19.00732422 259.34619141 C4.17174026 258.74778585 -12.10041207 254.16135533 -23.12109375 243.80859375 C-34.16757097 231.2892529 -35.09839511 213.44707037 -35.06689453 197.50048828 C-35.06864685 196.40037918 -35.07039917 195.30027008 -35.07220459 194.16682434 C-35.07658587 190.55130409 -35.07369947 186.9358332 -35.0703125 183.3203125 C-35.07098632 180.80304963 -35.071957 178.28578682 -35.07321167 175.76852417 C-35.07468334 170.50485737 -35.07264594 165.24120334 -35.06787109 159.97753906 C-35.06241298 153.89031355 -35.06420546 147.80312145 -35.0696975 141.71589673 C-35.074776 135.85219828 -35.07424716 129.98851256 -35.07131577 124.12481308 C-35.07064721 121.63123444 -35.07147243 119.13765495 -35.07379532 116.6440773 C-35.07632257 113.17040968 -35.07248098 109.69680727 -35.06689453 106.22314453 C-35.06891876 105.18626999 -35.07094299 104.14939545 -35.07302856 103.08110046 C-35.07020874 102.13911301 -35.06738892 101.19712555 -35.06448364 100.22659302 C-35.06410662 99.40552629 -35.06372959 98.58445957 -35.06334114 97.73851204 C-34.9375 95.75 -34.9375 95.75 -33.9375 93.75 C-34.53699463 93.76047363 -35.13648926 93.77094727 -35.75415039 93.78173828 C-38.5027233 93.82362837 -41.25122874 93.84943003 -44 93.875 C-44.94294922 93.89175781 -45.88589844 93.90851563 -46.85742188 93.92578125 C-55.14106425 93.98350698 -61.21554271 93.01066223 -67.9375 87.75 C-73.07519557 82.49553862 -74.9213068 77.63100295 -75.3125 70.375 C-75.22455583 65.26544382 -73.29693171 61.20553399 -70.9375 56.75 C-70.2775 56.75 -69.6175 56.75 -68.9375 56.75 C-68.6075 55.76 -68.2775 54.77 -67.9375 53.75 C-60.8910738 48.48526761 -53.80688566 48.1020595 -45.3125 48.4375 C-44.21292969 48.46005859 -43.11335938 48.48261719 -41.98046875 48.50585938 C-39.29800164 48.56417388 -36.61851567 48.64594816 -33.9375 48.75 C-34.2675 48.09 -34.5975 47.43 -34.9375 46.75 C-35.18192258 42.90126871 -35.12271452 39.04311234 -35.125 35.1875 C-35.13724609 34.12724609 -35.14949219 33.06699219 -35.16210938 31.97460938 C-35.17867964 23.02114125 -34.83561863 14.88982781 -28.9375 7.75 C-20.86736295 -0.26938147 -11.38909993 -4.58067096 0 0 Z " fill="#FFBD09" transform="translate(2038.9375,1301.25)"/>
<path d="M0 0 C4.83462714 4.23280633 7.1391184 9.09737744 7.8203125 15.4609375 C7.62745717 22.38830101 7.10133837 29.67823923 2.33203125 35.0625 C1.58373047 35.75472656 1.58373047 35.75472656 0.8203125 36.4609375 C0.31113281 36.96367188 -0.19804687 37.46640625 -0.72265625 37.984375 C-7.13570473 43.10915105 -15.4512276 42.2108902 -23.1796875 41.4609375 C-25.50871549 40.86347563 -27.62220975 40.09621966 -29.8515625 39.20703125 C-38.81685927 36.3339244 -48.56349243 36.80437323 -57.1796875 40.4609375 C-68.74768697 46.51949418 -75.78028802 56.84625161 -79.9296875 69.0859375 C-83.51724044 83.09133608 -83.47175779 97.58003349 -83.48464775 111.93437576 C-83.48836744 115.26466404 -83.50523735 118.59466911 -83.52540588 121.92489624 C-83.58033351 131.37907663 -83.61162039 140.83329394 -83.63598633 150.28759766 C-83.65186754 156.10390083 -83.6820689 161.91999314 -83.72075081 167.73618698 C-83.73237026 169.94091939 -83.73833089 172.1456894 -83.73843193 174.35045242 C-83.73862422 177.42477802 -83.75690144 180.49851925 -83.77905273 183.57275391 C-83.77447556 184.47465454 -83.76989838 185.37655518 -83.7651825 186.30578613 C-83.85516107 194.17064646 -86.01640452 200.01576516 -91.39453125 205.8828125 C-96.94282262 210.78764776 -103.19853514 212.13666897 -110.46875 211.8515625 C-118.20362499 210.7370272 -124.59906941 206.77887504 -129.3671875 200.6484375 C-132.60368096 194.95667313 -133.4297332 189.63645989 -133.44038391 183.14993286 C-133.44420946 182.44793097 -133.44803501 181.74592909 -133.45197648 181.02265441 C-133.46223202 178.68836491 -133.45832864 176.35432482 -133.4543457 174.02001953 C-133.45869632 172.33902765 -133.46388064 170.65803775 -133.46983337 168.97705078 C-133.48319735 164.42326478 -133.48380491 159.86956192 -133.48127007 155.31576014 C-133.48019854 151.50872759 -133.48508843 147.70171173 -133.4898755 143.89468277 C-133.50096181 134.91008174 -133.50141309 125.92552252 -133.49536133 116.94091797 C-133.48932231 107.68472497 -133.50163275 98.42868401 -133.5229314 89.17251694 C-133.54056823 81.21390476 -133.54654545 73.25534089 -133.54329365 65.2967099 C-133.54148389 60.54851449 -133.54408632 55.80042754 -133.55800819 51.05224991 C-133.57061573 46.58538707 -133.56861484 42.1187606 -133.55559731 37.65190125 C-133.55323829 36.01731663 -133.5559419 34.38271523 -133.56422043 32.74814987 C-133.65405606 13.62386934 -133.65405606 13.62386934 -127.6171875 5.8984375 C-126.8128125 5.0940625 -126.0084375 4.2896875 -125.1796875 3.4609375 C-124.5196875 3.4609375 -123.8596875 3.4609375 -123.1796875 3.4609375 C-123.1796875 2.8009375 -123.1796875 2.1409375 -123.1796875 1.4609375 C-116.03987535 -2.67166695 -109.35353292 -3.69373211 -101.1796875 -2.5390625 C-94.72382571 -0.36465897 -89.89543259 3.79884975 -86.1796875 9.4609375 C-84.14696044 14.01037426 -83.68810015 18.5462819 -83.1796875 23.4609375 C-82.27089844 22.28337891 -82.27089844 22.28337891 -81.34375 21.08203125 C-75.96353231 14.26911488 -70.7400924 8.91402693 -63.1796875 4.4609375 C-62.13425781 3.84347656 -61.08882812 3.22601562 -60.01171875 2.58984375 C-42.51142307 -7.27843552 -17.55472604 -12.39527251 0 0 Z " fill="#FFBE09" transform="translate(2743.1796875,1348.5390625)"/>
</svg>
